<svg width="17" height="17" viewBox="0 0 17 17" fill="none" xmlns="http://www.w3.org/2000/svg">
<g clip-path="url(#clip0)">
<path d="M16.4688 3.63575C15.8709 3.89551 15.2384 4.06665 14.5911 4.14376C15.2713 3.74544 15.7829 3.11265 16.0298 2.36407C15.3867 2.74012 14.6843 3.00398 13.9526 3.14434C13.6445 2.82145 13.274 2.56458 12.8635 2.38935C12.4531 2.21412 12.0113 2.12418 11.565 2.12501C9.75807 2.12501 8.2958 3.56602 8.2958 5.34239C8.29452 5.58947 8.32283 5.83582 8.38014 6.07618C7.08445 6.01544 5.8157 5.68491 4.65507 5.10573C3.49444 4.52656 2.46749 3.7115 1.6399 2.7127C1.34957 3.20215 1.19602 3.76061 1.19531 4.32969C1.19531 5.44532 1.77736 6.43145 2.65625 7.00919C2.13553 6.99683 1.62549 6.85901 1.16941 6.60743V6.64727C1.16941 8.20782 2.29832 9.50606 3.79246 9.80157C3.51149 9.87647 3.22195 9.91442 2.93117 9.91446C2.72484 9.91482 2.51898 9.8948 2.31658 9.85469C2.73195 11.133 3.94088 12.0627 5.37293 12.0893C4.20929 12.9861 2.78064 13.4708 1.31152 13.4672C1.05075 13.4668 0.790223 13.4513 0.53125 13.4207C2.02578 14.375 3.76306 14.8798 5.53629 14.875C11.558 14.875 14.8478 9.9709 14.8478 5.71758C14.8478 5.57813 14.8441 5.43868 14.8375 5.30254C15.476 4.84835 16.0284 4.28391 16.4688 3.63575Z" fill="#183245"/>
</g>
<defs>
<clipPath id="clip0">
<rect width="17" height="17" fill="white"/>
</clipPath>
</defs>
</svg>
