<svg width="17" height="17" viewBox="0 0 17 17" fill="none" xmlns="http://www.w3.org/2000/svg">
<path d="M16.4062 1.28125L13.1562 0.53125C12.8125 0.4375 12.4375 0.625 12.2812 0.96875L10.7812 4.46875C10.6562 4.78125 10.75 5.125 11 5.34375L12.9062 6.90625C11.7812 9.28125 9.8125 11.2812 7.375 12.4375L5.8125 10.5312C5.59375 10.2812 5.25 10.1875 4.9375 10.3125L1.4375 11.8125C1.09375 11.9688 0.9375 12.3438 1 12.6875L1.75 15.9375C1.84375 16.2812 2.125 16.5 2.5 16.5C10.5 16.5 17 10.0312 17 2C17 1.65625 16.75 1.375 16.4062 1.28125Z" fill="#92BEDE"/>
</svg>
