<svg width="19" height="19" viewBox="0 0 19 19" fill="none" xmlns="http://www.w3.org/2000/svg">
<path d="M13.07 8.14286C13.07 10.8996 10.8267 13.1429 8.07003 13.1429C5.31334 13.1429 3.07003 10.8996 3.07003 8.14286C3.07003 5.38616 5.31334 3.14286 8.07003 3.14286C10.8267 3.14286 13.07 5.38616 13.07 8.14286ZM18.7843 17.4286C18.7843 17.0491 18.6281 16.6808 18.3714 16.4241L14.5432 12.596C15.4473 11.2902 15.9272 9.72768 15.9272 8.14286C15.9272 3.80134 12.4116 0.285713 8.07003 0.285713C3.72852 0.285713 0.212891 3.80134 0.212891 8.14286C0.212891 12.4844 3.72852 16 8.07003 16C9.65486 16 11.2174 15.5201 12.5232 14.6161L16.3513 18.433C16.608 18.7009 16.9763 18.8571 17.3557 18.8571C18.137 18.8571 18.7843 18.2098 18.7843 17.4286Z" fill="white"/>
</svg>
