<svg width="26" height="22" viewBox="0 0 26 22" fill="none" xmlns="http://www.w3.org/2000/svg">
<path d="M24.9459 13.6352H22.888V10.9749C22.888 10.6738 22.6873 10.473 22.3861 10.473H13.5019V8.31469H15.5598C16.1622 8.31469 16.6139 7.86295 16.6139 7.26064V2.19114C16.6139 1.58882 16.1622 1.13708 15.5598 1.13708H10.4402C9.83784 1.13708 9.3861 1.58882 9.3861 2.19114V7.31083C9.3861 7.91315 9.83784 8.36488 10.4402 8.36488H12.4981V10.473H3.6139C3.31274 10.473 3.11197 10.6738 3.11197 10.9749V13.6352H1.05405C0.451737 13.6352 0 14.0869 0 14.6892V19.8089C0 20.4112 0.451737 20.863 1.05405 20.863H6.17375C6.77606 20.863 7.2278 20.4112 7.2278 19.8089V14.6892C7.2278 14.0869 6.77606 13.6352 6.17375 13.6352H4.11583V11.4769H12.4981V13.6352H10.4402C9.83784 13.6352 9.3861 14.0869 9.3861 14.6892V19.8089C9.3861 20.4112 9.83784 20.863 10.4402 20.863H15.5598C16.1622 20.863 16.6139 20.4112 16.6139 19.8089V14.6892C16.6139 14.0869 16.1622 13.6352 15.5598 13.6352H13.5019V11.4769H21.8842V13.6352H19.8263C19.2239 13.6352 18.7722 14.0869 18.7722 14.6892V19.8089C18.7722 20.4112 19.2239 20.863 19.8263 20.863H24.9459C25.5483 20.863 26 20.4112 26 19.8089V14.6892C26 14.0869 25.4981 13.6352 24.9459 13.6352ZM6.22394 14.6892C6.17375 14.639 6.22394 14.639 6.22394 14.6892V19.8089C6.22394 19.8591 6.22394 19.8591 6.17375 19.8591H1.05405C1.00386 19.8591 1.00386 19.8591 1.00386 19.8089V14.6892C1.00386 14.639 1.00386 14.639 1.05405 14.639L6.22394 14.6892ZM15.61 14.6892C15.5598 14.639 15.61 14.639 15.61 14.6892V19.8089C15.61 19.8591 15.61 19.8591 15.5598 19.8591H10.4402C10.39 19.8591 10.39 19.8591 10.39 19.8089V14.6892C10.39 14.639 10.39 14.639 10.4402 14.639L15.61 14.6892ZM10.39 7.26064C10.4402 7.31083 10.39 7.31083 10.39 7.26064V2.19114C10.39 2.14095 10.39 2.14095 10.4402 2.14095H15.5598C15.61 2.14095 15.61 2.14095 15.61 2.19114V7.31083C15.61 7.36102 15.61 7.36102 15.5598 7.36102L10.39 7.26064ZM24.9961 19.7587C24.9961 19.8089 24.9459 19.8089 24.9961 19.7587L19.8263 19.8089C19.7761 19.8089 19.7761 19.8089 19.7761 19.7587V14.6892C19.7761 14.639 19.7761 14.639 19.8263 14.639H24.9459C24.9961 14.639 24.9961 14.639 24.9961 14.6892V19.7587Z" fill="#92BEDE" stroke="#92BEDE" stroke-width="0.3"/>
</svg>
