<svg width="23" height="23" viewBox="0 0 23 23" fill="none" xmlns="http://www.w3.org/2000/svg">
<g clip-path="url(#clip0)">
<path d="M11.4998 21.0834C6.21559 21.0834 1.9165 16.7843 1.9165 11.5C1.9165 6.21577 6.21559 1.91669 11.4998 1.91669C16.7841 1.91669 21.0832 6.21577 21.0832 11.5C21.0832 16.7843 16.7841 21.0834 11.4998 21.0834ZM11.4998 3.35419C7.00813 3.35419 3.354 7.00831 3.354 11.5C3.354 15.9917 7.00813 19.6459 11.4998 19.6459C15.9915 19.6459 19.6457 15.9917 19.6457 11.5C19.6457 7.00831 15.9915 3.35419 11.4998 3.35419Z" fill="#92BEDE"/>
<path d="M11.5 4.79167C11.1032 4.79167 10.7812 4.46967 10.7812 4.07292V0.71875C10.7812 0.322 11.1032 0 11.5 0C11.8967 0 12.2188 0.322 12.2188 0.71875V4.07292C12.2188 4.46967 11.8967 4.79167 11.5 4.79167Z" fill="#92BEDE"/>
<path d="M22.2814 12.2188H18.9272C18.5305 12.2188 18.2085 11.8967 18.2085 11.5C18.2085 11.1032 18.5305 10.7812 18.9272 10.7812H22.2814C22.6782 10.7812 23.0002 11.1032 23.0002 11.5C23.0002 11.8967 22.6782 12.2188 22.2814 12.2188Z" fill="#92BEDE"/>
<path d="M11.5 23C11.1032 23 10.7812 22.678 10.7812 22.2812V18.9271C10.7812 18.5303 11.1032 18.2083 11.5 18.2083C11.8967 18.2083 12.2188 18.5303 12.2188 18.9271V22.2812C12.2188 22.678 11.8967 23 11.5 23Z" fill="#92BEDE"/>
<path d="M4.07292 12.2188H0.71875C0.322 12.2188 0 11.8967 0 11.5C0 11.1032 0.322 10.7812 0.71875 10.7812H4.07292C4.46967 10.7812 4.79167 11.1032 4.79167 11.5C4.79167 11.8967 4.46967 12.2188 4.07292 12.2188Z" fill="#92BEDE"/>
<path d="M11.5 14.375C9.91492 14.375 8.625 13.0851 8.625 11.5C8.625 9.91492 9.91492 8.625 11.5 8.625C13.0851 8.625 14.375 9.91492 14.375 11.5C14.375 13.0851 13.0851 14.375 11.5 14.375ZM11.5 10.0625C10.7075 10.0625 10.0625 10.7075 10.0625 11.5C10.0625 12.2925 10.7075 12.9375 11.5 12.9375C12.2925 12.9375 12.9375 12.2925 12.9375 11.5C12.9375 10.7075 12.2925 10.0625 11.5 10.0625Z" fill="#92BEDE"/>
</g>
<defs>
<clipPath id="clip0">
<rect width="23" height="23" fill="white"/>
</clipPath>
</defs>
</svg>
