<svg width="23" height="23" viewBox="0 0 23 23" fill="none" xmlns="http://www.w3.org/2000/svg">
<g clip-path="url(#clip0)">
<path d="M22.7956 21.2319L14.8331 9.88497C14.7643 9.78699 14.6811 9.70227 14.5876 9.63219V7.1875H20.2029C20.4475 7.1875 20.6731 7.0548 20.7919 6.84093C20.9107 6.62705 20.9042 6.36547 20.775 6.15771L19.5989 4.26758L20.775 2.37745C20.9043 2.16968 20.9107 1.90815 20.7919 1.69423C20.673 1.48031 20.4476 1.34766 20.2029 1.34766H14.5876V0.673828C14.5876 0.301695 14.2859 0 13.9138 0C13.5417 0 13.24 0.301695 13.24 0.673828V9.63219C13.1465 9.70227 13.0632 9.78699 12.9945 9.88497L9.24668 15.2257L7.80173 13.2216C7.59122 12.9297 7.25067 12.7554 6.89076 12.7554C6.53084 12.7554 6.19029 12.9297 5.97979 13.2216L0.212849 21.2201C-0.0348947 21.5638 -0.0689005 22.0115 0.124129 22.3886C0.317158 22.7657 0.700207 23 1.12382 23H21.8763C22.2969 23 22.6787 22.7682 22.8728 22.395C23.0668 22.0218 23.0373 21.5761 22.7956 21.2319ZM6.38332 21.6523L10.7179 15.4755L11.8285 16.5103C12.0873 16.7514 12.4884 16.7515 12.7472 16.5103L13.9137 15.4234L15.0804 16.5104C15.2097 16.6309 15.3747 16.6912 15.5397 16.6912C15.7047 16.6912 15.8697 16.6309 15.999 16.5104L17.1098 15.4755L21.4443 21.6523H6.38332ZM5.03202 21.2318C4.94151 21.3608 4.88077 21.504 4.85036 21.6523H1.56266L6.89076 14.2625L8.42722 16.3935L5.03202 21.2318ZM13.9138 10.9211L16.3282 14.3617L15.5397 15.0964L14.3729 14.0094C14.1141 13.7683 13.713 13.7683 13.4542 14.0094L12.2878 15.0963L11.4994 14.3617L13.9138 10.9211ZM18.99 2.69531L18.2332 3.91162C18.0975 4.12958 18.0975 4.40562 18.2332 4.62358L18.99 5.83984H14.5876V2.69531H18.99Z" fill="#92BEDE"/>
</g>
<defs>
<clipPath id="clip0">
<rect width="23" height="23" fill="white"/>
</clipPath>
</defs>
</svg>
