<svg width="15" height="20" viewBox="0 0 15 20" fill="none" xmlns="http://www.w3.org/2000/svg">
<path d="M6.38281 19.5039C6.7168 20.0234 7.49609 20.0234 7.83008 19.5039C13.248 11.7109 14.25 10.8945 14.25 8C14.25 4.06641 11.0586 0.875 7.125 0.875C3.1543 0.875 0 4.06641 0 8C0 10.8945 0.964844 11.7109 6.38281 19.5039ZM7.125 10.9688C5.45508 10.9688 4.15625 9.66992 4.15625 8C4.15625 6.36719 5.45508 5.03125 7.125 5.03125C8.75781 5.03125 10.0938 6.36719 10.0938 8C10.0938 9.66992 8.75781 10.9688 7.125 10.9688Z" fill="#92BEDE"/>
</svg>
