<svg width="17" height="18" viewBox="0 0 17 18" fill="none" xmlns="http://www.w3.org/2000/svg">
<path fill-rule="evenodd" clip-rule="evenodd" d="M15.9376 9.36121C15.9376 5.25398 12.6073 1.92371 8.50012 1.92371C4.3929 1.92371 1.06262 5.25398 1.06262 9.36121C1.06262 13.0733 3.78196 16.1502 7.33801 16.7087V11.5118H5.44909V9.36121H7.33801L7.33801 7.72263C7.33801 5.85894 8.44866 4.82865 10.1473 4.82865C10.9611 4.82865 11.8125 4.97408 11.8125 4.97408V6.80456H10.8741C9.95077 6.80456 9.6619 7.37765 9.6619 7.96667V9.36121H11.7245L11.3951 11.5118H9.66223L9.66223 16.7094C13.2183 16.1512 15.9376 13.0743 15.9376 9.36121Z" fill="#183245"/>
</svg>
