<svg width="28" height="29" viewBox="0 0 28 29" fill="none" xmlns="http://www.w3.org/2000/svg">
<path d="M20.7132 29C20.7132 25.4052 20.7132 21.8104 20.7056 18.2231C20.7056 18.0192 20.7056 17.906 20.9715 18.0117C23.137 18.8651 25.3026 19.7033 27.4681 20.5416C27.7188 20.6398 27.924 20.7682 27.9848 21.0552C28.0532 21.395 27.886 21.6442 27.4833 21.8028C26.2068 22.3013 24.9302 22.7921 23.6537 23.2906C23.289 23.4341 22.9319 23.57 22.5672 23.7059C22.4456 23.7513 22.3848 23.8117 22.3848 23.9476C22.3924 25.6091 22.3924 27.2705 22.3924 28.9244C22.3924 28.9546 22.4076 28.9773 22.4152 29.0075C21.8529 29 21.283 29 20.7132 29Z" fill="#92BEDE"/>
<path d="M0.068179 0.000227865C0.911599 0.377832 1.78541 0.679915 2.65163 1.01976C4.01174 1.55596 5.37945 2.07705 6.74716 2.6057C6.95231 2.68877 7.14987 2.77184 7.24105 2.99085C7.39302 3.3458 7.24105 3.68564 6.83074 3.84424C5.91893 4.20674 4.99953 4.56169 4.08012 4.91663C3.36588 5.19606 2.65923 5.48304 1.93738 5.73981C1.73222 5.81533 1.66384 5.90596 1.67144 6.12497C1.67904 7.6807 1.67144 9.23643 1.67904 10.7922C1.67904 11.0263 1.62585 11.1093 1.3827 11.0942C1.01798 11.0716 0.645656 11.0716 0.273335 11.0942C0.0377854 11.1093 -0.00780485 11.0187 -0.00020647 10.8073C0.00739191 9.64424 0.00739191 8.48877 0.00739191 7.32575C0.00739191 4.87887 0.00739191 2.43955 0.0149903 -0.00732422C0.0301871 0.000227865 0.0453838 0.000227865 0.068179 0.000227865Z" fill="#92BEDE"/>
<path d="M17.1725 22.1049C16.7849 21.6896 16.443 21.3271 16.0935 20.9646C16.0023 20.8739 15.9491 20.806 16.0783 20.6927C16.3974 20.4132 16.709 20.1187 17.0129 19.8242C17.1117 19.7336 17.1649 19.7336 17.2636 19.8317C18.0463 20.6776 18.8441 21.5083 19.6267 22.3617C19.9535 22.7166 19.9459 23.1471 19.6115 23.5096C18.8365 24.3554 18.0615 25.1862 17.2864 26.032C17.1801 26.1453 17.1193 26.1679 16.9977 26.0471C16.7014 25.7601 16.3974 25.4731 16.0859 25.2013C15.9719 25.1031 15.9719 25.0427 16.0783 24.9294C16.4354 24.5518 16.7773 24.1666 17.1345 23.7815C17.0129 23.706 16.9065 23.7362 16.8077 23.7362C13.4645 23.7362 10.1136 23.7362 6.77029 23.7362C4.64274 23.7362 2.90272 22.3013 2.4924 20.2244C1.97571 17.6416 3.98928 15.1419 6.64112 15.1343C11.2913 15.1192 15.9491 15.1268 20.5993 15.1268C21.8455 15.1268 22.8408 14.4773 23.2512 13.3974C23.9198 11.6453 22.6281 9.80258 20.7133 9.80258C16.8305 9.79503 12.9402 9.80258 9.0574 9.80258C7.21859 9.80258 5.37979 9.80258 3.54098 9.81013C3.31303 9.81013 3.22185 9.76482 3.23704 9.5156C3.25984 9.14555 3.25984 8.7755 3.23704 8.413C3.22185 8.17889 3.30543 8.11847 3.54098 8.11847C5.90407 8.12602 8.25957 8.11847 10.6227 8.11847C13.9507 8.11847 17.2788 8.11847 20.6069 8.11847C22.8864 8.11847 24.6493 9.61378 25.014 11.8567C25.4091 14.2583 23.5247 16.6599 21.0856 16.7656C19.5052 16.8336 17.9171 16.7958 16.3366 16.7958C13.1909 16.7958 10.0452 16.7958 6.89946 16.8034C5.38738 16.8034 4.32361 17.6794 4.08046 19.0765C3.83732 20.519 4.93908 21.9539 6.39797 22.0974C6.63352 22.12 6.86907 22.1276 7.10462 22.1276C10.3491 22.1276 13.586 22.1276 16.8305 22.1276C16.9141 22.12 17.0129 22.1125 17.1725 22.1049Z" fill="#92BEDE"/>
</svg>
