<svg width="23" height="23" viewBox="0 0 23 23" fill="none" xmlns="http://www.w3.org/2000/svg">
    <g clip-path="url(#a)" fill="#92BEDE">
        <path d="M11.5 21.083c-5.284 0-9.584-4.299-9.584-9.583s4.3-9.583 9.584-9.583 9.583 4.299 9.583 9.583-4.299 9.583-9.583 9.583zm0-17.729c-4.492 0-8.146 3.654-8.146 8.146 0 4.492 3.654 8.146 8.146 8.146 4.492 0 8.146-3.654 8.146-8.146 0-4.492-3.655-8.146-8.146-8.146z"/>
        <path d="M11.5 4.792a.719.719 0 0 1-.719-.72V.72a.719.719 0 0 1 1.438 0v3.354a.72.72 0 0 1-.719.719z"/>
        <path d="M22.281 12.219h-3.354a.72.72 0 0 1 0-1.438h3.354a.719.719 0 0 1 0 1.438z"/>
        <path d="M11.5 23a.719.719 0 0 1-.719-.719v-3.354a.719.719 0 0 1 1.438 0v3.354A.72.72 0 0 1 11.5 23z"/>
        <path d="M4.073 12.219H.719a.72.72 0 0 1 0-1.438h3.354a.719.719 0 0 1 0 1.438z"/>
        <path d="M11.5 14.375A2.879 2.879 0 0 1 8.625 11.5 2.879 2.879 0 0 1 11.5 8.625a2.879 2.879 0 0 1 2.875 2.875 2.878 2.878 0 0 1-2.875 2.875zm0-4.313a1.44 1.44 0 0 0-1.438 1.438 1.44 1.44 0 0 0 1.438 1.438 1.44 1.44 0 0 0 1.438-1.438 1.44 1.44 0 0 0-1.438-1.438z"/>
    </g>
    <defs>
        <clipPath id="a">
            <path fill="#fff" d="M0 0h23v23H0z"/>
        </clipPath>
    </defs>
</svg>
