<svg width="23" height="23" viewBox="0 0 23 23" fill="none" xmlns="http://www.w3.org/2000/svg">
    <g clip-path="url(#a)">
        <path d="M22.796 21.232L14.833 9.885a1.12 1.12 0 0 0-.245-.253V7.188h5.615a.674.674 0 0 0 .572-1.03l-1.176-1.89 1.176-1.89a.674.674 0 0 0-.572-1.03h-5.615V.674a.674.674 0 0 0-1.348 0v8.958c-.094.07-.177.155-.245.253l-3.748 5.34-1.445-2.003a1.126 1.126 0 0 0-1.822 0L.213 21.22a1.118 1.118 0 0 0-.089 1.169c.193.377.576.611 1 .611h20.752c.42 0 .803-.232.997-.605a1.12 1.12 0 0 0-.077-1.163zm-16.413.42l4.335-6.177 1.11 1.035c.26.241.66.241.92 0l1.166-1.087 1.166 1.087a.672.672 0 0 0 .919 0l1.11-1.035 4.335 6.177H6.384zm-1.351-.42c-.09.129-.151.272-.182.42H1.563l5.328-7.39 1.536 2.131-3.395 4.839zm8.882-10.31l2.414 3.44-.788.734-1.167-1.087a.674.674 0 0 0-.919 0l-1.166 1.087-.789-.734 2.415-3.44zm5.076-8.227l-.757 1.217a.673.673 0 0 0 0 .712l.757 1.216h-4.402V2.695h4.402z" fill="#92BEDE"/>
    </g>
    <defs>
        <clipPath id="a">
            <path fill="#fff" d="M0 0h23v23H0z"/>
        </clipPath>
    </defs>
</svg>
