<svg width="17" height="17" viewBox="0 0 17 17" fill="none" xmlns="http://www.w3.org/2000/svg">
    <g clip-path="url(#a)">
        <path d="M16.469 3.636c-.598.26-1.23.43-1.878.508a3.238 3.238 0 0 0 1.439-1.78 6.565 6.565 0 0 1-2.077.78 3.291 3.291 0 0 0-2.388-1.019c-1.807 0-3.27 1.441-3.27 3.217 0 .247.028.494.085.734a9.32 9.32 0 0 1-6.74-3.363 3.177 3.177 0 0 0-.445 1.617 3.21 3.21 0 0 0 1.461 2.68 3.237 3.237 0 0 1-1.487-.403v.04c0 1.56 1.13 2.86 2.623 3.155-.28.074-.57.112-.86.112-.207 0-.413-.02-.615-.06a3.268 3.268 0 0 0 3.056 2.235A6.627 6.627 0 0 1 .53 13.421a9.254 9.254 0 0 0 5.005 1.454c6.022 0 9.312-4.904 9.312-9.157 0-.14-.004-.28-.01-.415a6.592 6.592 0 0 0 1.63-1.667z" fill="#183245"/>
    </g>
    <defs>
        <clipPath id="a">
            <path fill="#fff" d="M0 0h17v17H0z"/>
        </clipPath>
    </defs>
</svg>
