<svg width="17" height="17" viewBox="0 0 17 17" fill="none" xmlns="http://www.w3.org/2000/svg">
    <path d="M2.302 5.401a3.109 3.109 0 0 1 3.1-3.099h6.197a3.108 3.108 0 0 1 3.1 3.1v6.197a3.108 3.108 0 0 1-3.1 3.099H5.401a3.108 3.108 0 0 1-3.099-3.1V5.402zm-1.24 0V11.6a4.351 4.351 0 0 0 4.34 4.338h6.197a4.351 4.351 0 0 0 4.339-4.338V5.4a4.351 4.351 0 0 0-4.339-4.338H5.401A4.351 4.351 0 0 0 1.063 5.4z" fill="#183245"/>
    <path d="M5.401 4.471a.93.93 0 1 1-1.86 0 .93.93 0 0 1 1.86 0zm.62 4.029a2.48 2.48 0 1 1 4.958 0 2.48 2.48 0 0 1-4.958 0zm-1.24 0a3.719 3.719 0 1 0 7.437 0 3.719 3.719 0 0 0-7.437 0z" fill="#183245"/>
</svg>
