<svg width="16" height="13" viewBox="0 0 16 13" fill="none" xmlns="http://www.w3.org/2000/svg">
    <path d="M15.688 4.469c-.72.562-1.626 1.25-4.813 3.562-.625.469-1.781 1.5-2.875 1.5-1.125 0-2.25-1.031-2.906-1.5C1.906 5.72 1 5.031.28 4.47c-.125-.094-.281 0-.281.156V11c0 .844.656 1.5 1.5 1.5h13A1.5 1.5 0 0 0 16 11V4.625c0-.156-.188-.25-.313-.156zM8 8.5c.719.031 1.75-.906 2.281-1.281 4.156-3 4.469-3.282 5.406-4.032A.711.711 0 0 0 16 2.595V2c0-.813-.688-1.5-1.5-1.5h-13A1.5 1.5 0 0 0 0 2v.594c0 .25.094.469.281.594.938.75 1.25 1.03 5.407 4.03C6.218 7.595 7.25 8.532 8 8.5z" fill="#92BEDE"/>
</svg>
