<?xml version="1.0" encoding="UTF-8"?><!DOCTYPE svg PUBLIC "-//W3C//DTD SVG 1.1//EN" "http://www.w3.org/Graphics/SVG/1.1/DTD/svg11.dtd"><svg xmlns="http://www.w3.org/2000/svg" xmlns:xlink="http://www.w3.org/1999/xlink"><defs>
        <clipPath id="a">
            <path d="M0 0h23v23H0z"/>
        </clipPath>
    
        <clipPath id="a">
            <path d="M0 0h23v23H0z"/>
        </clipPath>
    
        <clipPath id="a">
            <path d="M0 0h17v17H0z"/>
        </clipPath>
    </defs><symbol id="icon-aim1" viewBox="0 0 23 23">
    <g clip-path="url(#a)">
        <path d="M11.5 21.083c-5.284 0-9.584-4.299-9.584-9.583s4.3-9.583 9.584-9.583 9.583 4.299 9.583 9.583-4.299 9.583-9.583 9.583zm0-17.729c-4.492 0-8.146 3.654-8.146 8.146 0 4.492 3.654 8.146 8.146 8.146 4.492 0 8.146-3.654 8.146-8.146 0-4.492-3.655-8.146-8.146-8.146z"/>
        <path d="M11.5 4.792a.719.719 0 0 1-.719-.72V.72a.719.719 0 0 1 1.438 0v3.354a.72.72 0 0 1-.719.719z"/>
        <path d="M22.281 12.219h-3.354a.72.72 0 0 1 0-1.438h3.354a.719.719 0 0 1 0 1.438z"/>
        <path d="M11.5 23a.719.719 0 0 1-.719-.719v-3.354a.719.719 0 0 1 1.438 0v3.354A.72.72 0 0 1 11.5 23z"/>
        <path d="M4.073 12.219H.719a.72.72 0 0 1 0-1.438h3.354a.719.719 0 0 1 0 1.438z"/>
        <path d="M11.5 14.375A2.879 2.879 0 0 1 8.625 11.5 2.879 2.879 0 0 1 11.5 8.625a2.879 2.879 0 0 1 2.875 2.875 2.878 2.878 0 0 1-2.875 2.875zm0-4.313a1.44 1.44 0 0 0-1.438 1.438 1.44 1.44 0 0 0 1.438 1.438 1.44 1.44 0 0 0 1.438-1.438 1.44 1.44 0 0 0-1.438-1.438z"/>
    </g>
    
</symbol><symbol id="icon-arrow-forward" viewBox="0 0 24 24">
    <path d="M12 6l-1.057 1.058 4.184 4.192H6v1.5h9.127l-4.184 4.192L12 18l6-6-6-6z"/>
</symbol><symbol id="icon-contacts-back" viewBox="0 0 24 24">
    <path d="M2.117 12l7.527 6.235L9 19l-9-7.521L9 4l.645.764L2.116 11H24v1H2.117z"/>
</symbol><symbol id="icon-goal2" viewBox="0 0 23 23">
    <g clip-path="url(#a)">
        <path d="M22.796 21.232L14.833 9.885a1.12 1.12 0 0 0-.245-.253V7.188h5.615a.674.674 0 0 0 .572-1.03l-1.176-1.89 1.176-1.89a.674.674 0 0 0-.572-1.03h-5.615V.674a.674.674 0 0 0-1.348 0v8.958c-.094.07-.177.155-.245.253l-3.748 5.34-1.445-2.003a1.126 1.126 0 0 0-1.822 0L.213 21.22a1.118 1.118 0 0 0-.089 1.169c.193.377.576.611 1 .611h20.752c.42 0 .803-.232.997-.605a1.12 1.12 0 0 0-.077-1.163zm-16.413.42l4.335-6.177 1.11 1.035c.26.241.66.241.92 0l1.166-1.087 1.166 1.087a.672.672 0 0 0 .919 0l1.11-1.035 4.335 6.177H6.384zm-1.351-.42c-.09.129-.151.272-.182.42H1.563l5.328-7.39 1.536 2.131-3.395 4.839zm8.882-10.31l2.414 3.44-.788.734-1.167-1.087a.674.674 0 0 0-.919 0l-1.166 1.087-.789-.734 2.415-3.44zm5.076-8.227l-.757 1.217a.673.673 0 0 0 0 .712l.757 1.216h-4.402V2.695h4.402z"/>
    </g>
    
</symbol><symbol id="icon-hover-arrow" viewBox="0 0 12 8">
    <path d="M10.59.59L6 5.17 1.41.59 0 2l6 6 6-6L10.59.59z"/>
</symbol><symbol id="icon-location-mark" viewBox="0 0 15 20">
    <path d="M6.383 19.504a.867.867 0 0 0 1.447 0c5.418-7.793 6.42-8.61 6.42-11.504A7.127 7.127 0 0 0 7.125.875 7.103 7.103 0 0 0 0 8c0 2.895.965 3.71 6.383 11.504zm.742-8.535A2.93 2.93 0 0 1 4.156 8a2.954 2.954 0 0 1 2.969-2.969A2.978 2.978 0 0 1 10.094 8a2.954 2.954 0 0 1-2.969 2.969z"/>
</symbol><symbol id="icon-logo-facebook" viewBox="0 0 17 18">
    <path fill-rule="evenodd" clip-rule="evenodd" d="M15.938 9.361a7.438 7.438 0 1 0-8.6 7.348v-5.197H5.449v-2.15h1.889v-1.64c0-1.863 1.11-2.893 2.81-2.893.813 0 1.665.145 1.665.145v1.83h-.939c-.923 0-1.212.574-1.212 1.163V9.36h2.063l-.33 2.15H9.662v5.198a7.44 7.44 0 0 0 6.276-7.348z"/>
</symbol><symbol id="icon-logo-instagram" viewBox="0 0 17 17">
    <path d="M2.302 5.401a3.109 3.109 0 0 1 3.1-3.099h6.197a3.108 3.108 0 0 1 3.1 3.1v6.197a3.108 3.108 0 0 1-3.1 3.099H5.401a3.108 3.108 0 0 1-3.099-3.1V5.402zm-1.24 0V11.6a4.351 4.351 0 0 0 4.34 4.338h6.197a4.351 4.351 0 0 0 4.339-4.338V5.4a4.351 4.351 0 0 0-4.339-4.338H5.401A4.351 4.351 0 0 0 1.063 5.4z"/>
    <path d="M5.401 4.471a.93.93 0 1 1-1.86 0 .93.93 0 0 1 1.86 0zm.62 4.029a2.48 2.48 0 1 1 4.958 0 2.48 2.48 0 0 1-4.958 0zm-1.24 0a3.719 3.719 0 1 0 7.437 0 3.719 3.719 0 0 0-7.437 0z"/>
</symbol><symbol id="icon-logo-twitter" viewBox="0 0 17 17">
    <g clip-path="url(#a)">
        <path d="M16.469 3.636c-.598.26-1.23.43-1.878.508a3.238 3.238 0 0 0 1.439-1.78 6.565 6.565 0 0 1-2.077.78 3.291 3.291 0 0 0-2.388-1.019c-1.807 0-3.27 1.441-3.27 3.217 0 .247.028.494.085.734a9.32 9.32 0 0 1-6.74-3.363 3.177 3.177 0 0 0-.445 1.617 3.21 3.21 0 0 0 1.461 2.68 3.237 3.237 0 0 1-1.487-.403v.04c0 1.56 1.13 2.86 2.623 3.155-.28.074-.57.112-.86.112-.207 0-.413-.02-.615-.06a3.268 3.268 0 0 0 3.056 2.235A6.627 6.627 0 0 1 .53 13.421a9.254 9.254 0 0 0 5.005 1.454c6.022 0 9.312-4.904 9.312-9.157 0-.14-.004-.28-.01-.415a6.592 6.592 0 0 0 1.63-1.667z"/>
    </g>
    
</symbol><symbol id="icon-message-mark" viewBox="0 0 16 13">
    <path d="M15.688 4.469c-.72.562-1.626 1.25-4.813 3.562-.625.469-1.781 1.5-2.875 1.5-1.125 0-2.25-1.031-2.906-1.5C1.906 5.72 1 5.031.28 4.47c-.125-.094-.281 0-.281.156V11c0 .844.656 1.5 1.5 1.5h13A1.5 1.5 0 0 0 16 11V4.625c0-.156-.188-.25-.313-.156zM8 8.5c.719.031 1.75-.906 2.281-1.281 4.156-3 4.469-3.282 5.406-4.032A.711.711 0 0 0 16 2.595V2c0-.813-.688-1.5-1.5-1.5h-13A1.5 1.5 0 0 0 0 2v.594c0 .25.094.469.281.594.938.75 1.25 1.03 5.407 4.03C6.218 7.595 7.25 8.532 8 8.5z"/>
</symbol><symbol id="icon-news-clock" viewBox="0 0 21 21">
    <path d="M10.491 1.75c-4.83 0-8.741 3.92-8.741 8.75s3.911 8.75 8.741 8.75c4.839 0 8.759-3.92 8.759-8.75s-3.92-8.75-8.759-8.75zM10.5 17.5c-3.867 0-7-3.133-7-7s3.133-7 7-7 7 3.133 7 7-3.133 7-7 7z"/>
    <path d="M10.938 6.125H9.624v5.25l4.594 2.756.656-1.076-3.938-2.336V6.125z"/>
</symbol><symbol id="icon-phone-mark" viewBox="0 0 17 17">
    <path d="M16.406 1.281l-3.25-.75c-.344-.094-.719.094-.875.438l-1.5 3.5a.774.774 0 0 0 .219.875l1.906 1.562a11.73 11.73 0 0 1-5.531 5.532L5.812 10.53a.774.774 0 0 0-.875-.219l-3.5 1.5c-.343.157-.5.532-.437.876l.75 3.25a.743.743 0 0 0 .75.562c8 0 14.5-6.469 14.5-14.5 0-.344-.25-.625-.594-.719z"/>
</symbol><symbol id="icon-search" viewBox="0 0 19 19">
    <path d="M13.07 8.143c0 2.757-2.243 5-5 5s-5-2.243-5-5 2.243-5 5-5 5 2.243 5 5zm5.714 9.286c0-.38-.156-.748-.413-1.005l-3.828-3.828a7.838 7.838 0 0 0 1.384-4.453A7.854 7.854 0 0 0 8.07.286 7.854 7.854 0 0 0 .213 8.143 7.854 7.854 0 0 0 8.07 16a7.84 7.84 0 0 0 4.453-1.384l3.828 3.817a1.4 1.4 0 0 0 1.005.424c.781 0 1.428-.647 1.428-1.428z"/>
</symbol><symbol id="icon-slider-arrow" viewBox="0 0 10 16">
    <path d="M10 14.12L3.82 8 10 1.88 8.097 0 0 8l8.097 8L10 14.12z"/>
</symbol><symbol id="icon-structure" viewBox="0 0 26 22">
    <path d="M24.946 13.635h-2.058v-2.66c0-.301-.2-.502-.502-.502h-8.884V8.315h2.058a1.03 1.03 0 0 0 1.054-1.054V2.19a1.03 1.03 0 0 0-1.054-1.054h-5.12a1.03 1.03 0 0 0-1.054 1.054v5.12a1.03 1.03 0 0 0 1.054 1.054h2.058v2.108H3.614c-.301 0-.502.2-.502.502v2.66H1.054A1.03 1.03 0 0 0 0 14.69v5.12a1.03 1.03 0 0 0 1.054 1.054h5.12a1.03 1.03 0 0 0 1.054-1.054v-5.12a1.03 1.03 0 0 0-1.054-1.054H4.116v-2.158h8.382v2.158H10.44a1.03 1.03 0 0 0-1.054 1.054v5.12a1.03 1.03 0 0 0 1.054 1.054h5.12a1.03 1.03 0 0 0 1.054-1.054v-5.12a1.03 1.03 0 0 0-1.054-1.054h-2.058v-2.158h8.382v2.158h-2.058a1.03 1.03 0 0 0-1.054 1.054v5.12a1.03 1.03 0 0 0 1.054 1.054h5.12A1.03 1.03 0 0 0 26 19.809v-5.12a1.06 1.06 0 0 0-1.054-1.054zM6.224 14.69c-.05-.05 0-.05 0 0v5.12c0 .05 0 .05-.05.05h-5.12c-.05 0-.05 0-.05-.05v-5.12c0-.05 0-.05.05-.05l5.17.05zm9.386 0c-.05-.05 0-.05 0 0v5.12c0 .05 0 .05-.05.05h-5.12c-.05 0-.05 0-.05-.05v-5.12c0-.05 0-.05.05-.05l5.17.05zm-5.22-7.428c.05.05 0 .05 0 0V2.19c0-.05 0-.05.05-.05h5.12c.05 0 .05 0 .05.05v5.12c0 .05 0 .05-.05.05l-5.17-.1zm14.606 12.498c0 .05-.05.05 0 0l-5.17.05c-.05 0-.05 0-.05-.05v-5.07c0-.05 0-.05.05-.05h5.12c.05 0 .05 0 .05.05v5.07z"/>
</symbol><symbol id="icon-view3" viewBox="0 0 28 29">
    <path d="M20.713 29c0-3.595 0-7.19-.007-10.777 0-.204 0-.317.265-.211 2.166.853 4.332 1.691 6.497 2.53.25.098.456.226.517.513.068.34-.099.59-.502.748-1.276.498-2.553.99-3.83 1.488-.364.143-.721.279-1.086.415-.121.045-.182.106-.182.242.007 1.661.007 3.322.007 4.976 0 .03.016.053.023.084C21.853 29 21.283 29 20.713 29z"/>
    <path d="M.068 0c.844.378 1.717.68 2.584 1.02 1.36.536 2.727 1.057 4.095 1.586.205.083.403.166.494.385.152.355 0 .695-.41.853-.912.363-1.831.718-2.75 1.073-.715.28-1.422.566-2.144.823-.205.075-.273.166-.266.385.008 1.556 0 3.111.008 4.667 0 .234-.053.317-.296.302a9.084 9.084 0 0 0-1.11 0c-.235.015-.28-.075-.273-.287.007-1.163.007-2.318.007-3.481 0-2.447 0-4.886.008-7.333C.03 0 .045 0 .068 0z"/>
    <path d="M17.172 22.105a95.26 95.26 0 0 0-1.079-1.14c-.09-.091-.144-.159-.015-.272.32-.28.631-.574.935-.869.099-.09.152-.09.25.008.783.846 1.581 1.676 2.364 2.53.326.355.319.785-.015 1.148-.775.845-1.55 1.676-2.326 2.522-.106.113-.167.136-.288.015-.297-.287-.6-.574-.912-.846-.114-.098-.114-.158-.008-.272.357-.377.7-.762 1.056-1.147-.121-.076-.227-.046-.326-.046H6.77c-2.127 0-3.867-1.435-4.278-3.512-.516-2.582 1.497-5.082 4.15-5.09 4.65-.015 9.307-.007 13.957-.007 1.247 0 2.242-.65 2.652-1.73.669-1.752-.623-3.594-2.538-3.594-3.883-.008-7.773 0-11.656 0-1.838 0-3.677 0-5.516.007-.228 0-.32-.045-.304-.294.023-.37.023-.74 0-1.103-.015-.234.068-.295.304-.295 2.363.008 4.719 0 7.082 0h9.984c2.28 0 4.042 1.496 4.407 3.739.395 2.401-1.49 4.803-3.928 4.909-1.58.068-3.169.03-4.75.03-3.145 0-6.29 0-9.437.007-1.512 0-2.575.876-2.819 2.273-.243 1.443.86 2.878 2.318 3.021.236.023.471.03.707.03h9.726c.083-.007.182-.014.341-.022z"/>
</symbol></svg>