<?xml version="1.0" encoding="UTF-8"?><!DOCTYPE svg PUBLIC "-//W3C//DTD SVG 1.1//EN" "http://www.w3.org/Graphics/SVG/1.1/DTD/svg11.dtd"><svg xmlns="http://www.w3.org/2000/svg" xmlns:xlink="http://www.w3.org/1999/xlink"><defs>
        <clipPath id="a">
            <path d="M0 0h17v17H0z"/>
        </clipPath>
    </defs><symbol id="icon-arrow-forward" viewBox="0 0 24 24">
    <path d="M12 6l-1.057 1.058 4.184 4.192H6v1.5h9.127l-4.184 4.192L12 18l6-6-6-6z"/>
</symbol><symbol id="icon-hover-arrow" viewBox="0 0 12 8">
    <path d="M10.59.59L6 5.17 1.41.59 0 2l6 6 6-6L10.59.59z"/>
</symbol><symbol id="icon-location-mark" viewBox="0 0 15 20">
    <path d="M6.383 19.504a.867.867 0 0 0 1.447 0c5.418-7.793 6.42-8.61 6.42-11.504A7.127 7.127 0 0 0 7.125.875 7.103 7.103 0 0 0 0 8c0 2.895.965 3.71 6.383 11.504zm.742-8.535A2.93 2.93 0 0 1 4.156 8a2.954 2.954 0 0 1 2.969-2.969A2.978 2.978 0 0 1 10.094 8a2.954 2.954 0 0 1-2.969 2.969z"/>
</symbol><symbol id="icon-logo-facebook" viewBox="0 0 17 18">
    <path fill-rule="evenodd" clip-rule="evenodd" d="M15.938 9.361a7.438 7.438 0 1 0-8.6 7.348v-5.197H5.449v-2.15h1.889v-1.64c0-1.863 1.11-2.893 2.81-2.893.813 0 1.665.145 1.665.145v1.83h-.939c-.923 0-1.212.574-1.212 1.163V9.36h2.063l-.33 2.15H9.662v5.198a7.44 7.44 0 0 0 6.276-7.348z"/>
</symbol><symbol id="icon-logo-instagram" viewBox="0 0 17 17">
    <path d="M2.302 5.401a3.109 3.109 0 0 1 3.1-3.099h6.197a3.108 3.108 0 0 1 3.1 3.1v6.197a3.108 3.108 0 0 1-3.1 3.099H5.401a3.108 3.108 0 0 1-3.099-3.1V5.402zm-1.24 0V11.6a4.351 4.351 0 0 0 4.34 4.338h6.197a4.351 4.351 0 0 0 4.339-4.338V5.4a4.351 4.351 0 0 0-4.339-4.338H5.401A4.351 4.351 0 0 0 1.063 5.4z"/>
    <path d="M5.401 4.471a.93.93 0 1 1-1.86 0 .93.93 0 0 1 1.86 0zm.62 4.029a2.48 2.48 0 1 1 4.958 0 2.48 2.48 0 0 1-4.958 0zm-1.24 0a3.719 3.719 0 1 0 7.437 0 3.719 3.719 0 0 0-7.437 0z"/>
</symbol><symbol id="icon-logo-twitter" viewBox="0 0 17 17">
    <g clip-path="url(#a)">
        <path d="M16.469 3.636c-.598.26-1.23.43-1.878.508a3.238 3.238 0 0 0 1.439-1.78 6.565 6.565 0 0 1-2.077.78 3.291 3.291 0 0 0-2.388-1.019c-1.807 0-3.27 1.441-3.27 3.217 0 .247.028.494.085.734a9.32 9.32 0 0 1-6.74-3.363 3.177 3.177 0 0 0-.445 1.617 3.21 3.21 0 0 0 1.461 2.68 3.237 3.237 0 0 1-1.487-.403v.04c0 1.56 1.13 2.86 2.623 3.155-.28.074-.57.112-.86.112-.207 0-.413-.02-.615-.06a3.268 3.268 0 0 0 3.056 2.235A6.627 6.627 0 0 1 .53 13.421a9.254 9.254 0 0 0 5.005 1.454c6.022 0 9.312-4.904 9.312-9.157 0-.14-.004-.28-.01-.415a6.592 6.592 0 0 0 1.63-1.667z"/>
    </g>
    
</symbol><symbol id="icon-message-mark" viewBox="0 0 16 13">
    <path d="M15.688 4.469c-.72.562-1.626 1.25-4.813 3.562-.625.469-1.781 1.5-2.875 1.5-1.125 0-2.25-1.031-2.906-1.5C1.906 5.72 1 5.031.28 4.47c-.125-.094-.281 0-.281.156V11c0 .844.656 1.5 1.5 1.5h13A1.5 1.5 0 0 0 16 11V4.625c0-.156-.188-.25-.313-.156zM8 8.5c.719.031 1.75-.906 2.281-1.281 4.156-3 4.469-3.282 5.406-4.032A.711.711 0 0 0 16 2.595V2c0-.813-.688-1.5-1.5-1.5h-13A1.5 1.5 0 0 0 0 2v.594c0 .25.094.469.281.594.938.75 1.25 1.03 5.407 4.03C6.218 7.595 7.25 8.532 8 8.5z"/>
</symbol><symbol id="icon-news-clock" viewBox="0 0 21 21">
    <path d="M10.491 1.75c-4.83 0-8.741 3.92-8.741 8.75s3.911 8.75 8.741 8.75c4.839 0 8.759-3.92 8.759-8.75s-3.92-8.75-8.759-8.75zM10.5 17.5c-3.867 0-7-3.133-7-7s3.133-7 7-7 7 3.133 7 7-3.133 7-7 7z"/>
    <path d="M10.938 6.125H9.624v5.25l4.594 2.756.656-1.076-3.938-2.336V6.125z"/>
</symbol><symbol id="icon-phone-mark" viewBox="0 0 17 17">
    <path d="M16.406 1.281l-3.25-.75c-.344-.094-.719.094-.875.438l-1.5 3.5a.774.774 0 0 0 .219.875l1.906 1.562a11.73 11.73 0 0 1-5.531 5.532L5.812 10.53a.774.774 0 0 0-.875-.219l-3.5 1.5c-.343.157-.5.532-.437.876l.75 3.25a.743.743 0 0 0 .75.562c8 0 14.5-6.469 14.5-14.5 0-.344-.25-.625-.594-.719z"/>
</symbol><symbol id="icon-slider-arrow" viewBox="0 0 10 16">
    <path d="M10 14.12L3.82 8 10 1.88 8.097 0 0 8l8.097 8L10 14.12z"/>
</symbol></svg>