<svg width="26" height="22" viewBox="0 0 26 22" fill="none" xmlns="http://www.w3.org/2000/svg">
    <path d="M24.946 13.635h-2.058v-2.66c0-.301-.2-.502-.502-.502h-8.884V8.315h2.058a1.03 1.03 0 0 0 1.054-1.054V2.19a1.03 1.03 0 0 0-1.054-1.054h-5.12a1.03 1.03 0 0 0-1.054 1.054v5.12a1.03 1.03 0 0 0 1.054 1.054h2.058v2.108H3.614c-.301 0-.502.2-.502.502v2.66H1.054A1.03 1.03 0 0 0 0 14.69v5.12a1.03 1.03 0 0 0 1.054 1.054h5.12a1.03 1.03 0 0 0 1.054-1.054v-5.12a1.03 1.03 0 0 0-1.054-1.054H4.116v-2.158h8.382v2.158H10.44a1.03 1.03 0 0 0-1.054 1.054v5.12a1.03 1.03 0 0 0 1.054 1.054h5.12a1.03 1.03 0 0 0 1.054-1.054v-5.12a1.03 1.03 0 0 0-1.054-1.054h-2.058v-2.158h8.382v2.158h-2.058a1.03 1.03 0 0 0-1.054 1.054v5.12a1.03 1.03 0 0 0 1.054 1.054h5.12A1.03 1.03 0 0 0 26 19.809v-5.12a1.06 1.06 0 0 0-1.054-1.054zM6.224 14.69c-.05-.05 0-.05 0 0v5.12c0 .05 0 .05-.05.05h-5.12c-.05 0-.05 0-.05-.05v-5.12c0-.05 0-.05.05-.05l5.17.05zm9.386 0c-.05-.05 0-.05 0 0v5.12c0 .05 0 .05-.05.05h-5.12c-.05 0-.05 0-.05-.05v-5.12c0-.05 0-.05.05-.05l5.17.05zm-5.22-7.428c.05.05 0 .05 0 0V2.19c0-.05 0-.05.05-.05h5.12c.05 0 .05 0 .05.05v5.12c0 .05 0 .05-.05.05l-5.17-.1zm14.606 12.498c0 .05-.05.05 0 0l-5.17.05c-.05 0-.05 0-.05-.05v-5.07c0-.05 0-.05.05-.05h5.12c.05 0 .05 0 .05.05v5.07z" fill="#92BEDE" stroke="#92BEDE" stroke-width=".3"/>
</svg>
