<svg width="70" height="70" viewBox="0 0 70 70" fill="none" xmlns="http://www.w3.org/2000/svg">
    <g clip-path="url(#a)">
        <path d="M35.033 47.837c7.071 0 12.804-5.733 12.804-12.804 0-7.072-5.733-12.805-12.804-12.805-7.072 0-12.805 5.733-12.805 12.805 0 7.071 5.733 12.804 12.805 12.804z" fill="#4D90CD"/>
        <path d="M35.032 48.746c-7.604 0-13.779-6.174-13.779-13.779 0-7.604 6.175-13.778 13.78-13.778 7.604 0 13.778 6.174 13.778 13.779-.065 7.604-6.24 13.778-13.779 13.778zm0-26.973c-7.279 0-13.259 5.98-13.259 13.26 0 7.279 5.98 13.258 13.26 13.258 7.279 0 13.258-5.979 13.258-13.258 0-7.28-5.98-13.26-13.259-13.26z" fill="#4D90CD"/>
        <path d="M35.032 55.831L14.17 35.032 35.032 14.17l20.864 20.863-20.864 20.799zM14.494 35.032l20.474 20.474L55.44 35.032 35.032 14.494 14.494 35.032z" fill="#4D90CD"/>
        <path d="M35.032 55.831L14.17 35.032 35.032 14.17l20.864 20.863-20.864 20.799zM14.494 35.032l20.474 20.474L55.44 35.032 35.032 14.494 14.494 35.032z" fill="#4D90CD"/>
        <path d="M40.427 55.18l-3.055-1.819.13-.195 2.795 1.625 1.625-2.795.26.13-1.755 3.055z" fill="#4D90CD"/>
        <path d="M28.078 18.069l-.26-.13 1.82-3.055 3.055 1.755-.13.195-2.86-1.625-1.625 2.86z" fill="#4D90CD"/>
        <path d="M49.786 49.786h-3.575v-.26h3.315v-3.315h.26v3.575z" fill="#4D90CD"/>
        <path d="M20.538 23.788h-.26v-3.51h3.51v.26h-3.25v3.25z" fill="#4D90CD"/>
        <path d="M52.126 42.182l-.13-.26 2.795-1.625-1.625-2.795.195-.13 1.82 3.055-3.055 1.755z" fill="#4D90CD"/>
        <path d="M16.639 32.693l-1.755-3.055 3.055-1.82.13.26-2.86 1.625 1.625 2.86-.195.13z" fill="#4D90CD"/>
        <path d="M53.361 32.693l-.195-.13 1.625-2.86-2.795-1.625.13-.26 3.055 1.82-1.82 3.055z" fill="#4D90CD"/>
        <path d="M17.939 42.182l-3.055-1.755 1.755-3.055.195.13-1.625 2.795 2.86 1.625-.13.26z" fill="#4D90CD"/>
        <path d="M49.786 23.788h-.26v-3.25h-3.315v-.26h3.575v3.51z" fill="#4D90CD"/>
        <path d="M23.788 49.786h-3.51v-3.575h.26v3.315h3.25v.26z" fill="#4D90CD"/>
        <path d="M41.922 18.069l-1.625-2.86-2.795 1.625-.13-.195 3.055-1.755 1.755 3.055-.26.13z" fill="#4D90CD"/>
        <path d="M29.638 55.18l-1.82-3.054.26-.13 1.625 2.795 2.86-1.625.13.195-3.055 1.82z" fill="#4D90CD"/>
        <path d="M45.432 53.1l-.13-.064-28.338-7.605.065-.13 7.604-28.338.13.065 28.338 7.605-.065.065L45.432 53.1zm-28.143-7.864l28.013 7.475 7.474-28.013-28.013-7.41-7.474 27.948z" fill="#4D90CD"/>
        <path d="M24.568 53.101l-.065-.13-7.54-28.403.13-.065L45.433 16.9l.065.13L53.1 45.367l-.13.13L24.568 53.1zm-7.28-28.338l7.475 28.013 28.013-7.474-7.54-28.013-27.947 7.474z" fill="#4D90CD"/>
        <path d="M68.245 35.032c0 18.394-14.884 33.278-33.278 33.278-18.393 0-33.212-14.949-33.212-33.278 0-18.328 14.884-33.277 33.277-33.277 18.394 0 33.213 14.884 33.213 33.277zM35.032 0C15.665 0 0 15.664 0 35.032c0 19.37 15.664 35.033 35.032 35.033 19.37 0 35.033-15.664 35.033-35.032C70.065 15.662 54.336 0 35.033 0z" fill="#4D90CD"/>
        <path d="M12.609 21.318c.195-.13.39-.195.52-.325l.195.26c-.195.13-.39.26-.65.39 0 .26-.065.52-.195.715-.13.26-.325.39-.52.52a1.31 1.31 0 0 1-.715.195c-.26 0-.52-.065-.78-.26-.26-.13-.455-.325-.65-.52-.13-.195-.26-.455-.26-.715 0-.26.065-.52.195-.715.13-.26.325-.454.52-.584a1.31 1.31 0 0 1 .715-.195c.26 0 .52.064.78.26.195.13.39.26.52.454.195.13.26.26.325.52zm-.845.455a1.15 1.15 0 0 1 .52-.325c-.065-.325-.325-.585-.65-.78a1.048 1.048 0 0 0-.585-.194c-.195 0-.39 0-.52.13a.586.586 0 0 0-.39.39c-.13.26-.195.52-.065.78.065.26.325.52.65.714.325.195.65.26.91.195s.52-.26.65-.52c.065-.13.13-.26.13-.39-.13.065-.26.13-.325.26l-.325-.26z" fill="#4087C6"/>
        <path d="M13.52 20.473l-2.47-1.69.194-.325 2.47 1.69-.195.325z" fill="#4087C6"/>
        <path d="M14.169 19.498l-2.34-1.884.845-1.04.455-.455c.13-.065.26-.13.455-.065.13 0 .325.065.455.195.195.13.26.325.26.52s-.065.455-.195.65c.13-.065.195-.065.26-.065h.52l.975.13-.325.39-.715-.065c-.195 0-.39-.065-.52-.065h-.26c-.065 0-.13.065-.195.065s-.065.065-.13.13l-.26.39 1.04.845-.325.325zm-1.04-1.364l.52-.65c.13-.13.195-.26.195-.39.065-.13.065-.195 0-.325a.493.493 0 0 0-.13-.26c-.13-.065-.26-.13-.39-.13s-.26.13-.39.26l-.585.845.78.65z" fill="#4087C6"/>
        <path d="M16.249 17.029l-2.145-2.08.26-.26 2.145 2.08-.26.26z" fill="#4087C6"/>
        <path d="M17.093 16.184l-1.95-2.275.455-.39 1.95 1.17c.195.13.325.195.39.26-.065-.13-.13-.26-.195-.455l-.845-2.08.39-.325 1.95 2.275-.26.26-1.625-1.885.975 2.47-.26.26-2.34-1.365 1.69 1.95-.325.13z" fill="#4087C6"/>
        <path d="M20.863 13.194l-1.494-2.6.52-.324 1.69 1.494.325.325c0-.13-.066-.26-.13-.52l-.326-2.144.456-.26 1.494 2.6-.325.194-1.3-2.21.52 2.6-.325.195-2.014-1.82 1.3 2.21-.39.26z" fill="#4087C6"/>
        <path d="M22.748 8.58l-.195-.39.39-.195.195.39-.39.195zm1.365 2.86l-1.235-2.73.39-.195 1.235 2.73-.39.194z" fill="#4087C6"/>
        <path d="M25.218 10.92l-1.04-2.795.39-.13.91 2.47 1.365-.52.13.325-1.755.65z" fill="#4087C6"/>
        <path d="M27.493 10.14l-.78-2.926.39-.13.715 2.535 1.43-.39.065.325-1.82.585z" fill="#4087C6"/>
        <path d="M29.313 6.435l-.065-.455.454-.13.065.455-.454.13zm.65 3.12l-.585-2.925.39-.065.584 2.924-.39.065z" fill="#4087C6"/>
        <path d="M31.978 9.23l-.13-1.3-1.3-1.56.455-.066.715.845c.13.13.26.325.39.455.065-.195.195-.325.26-.585l.455-.91.455-.065-.975 1.82.13 1.235-.455.13z" fill="#4087C6"/>
        <path d="M36.072 9.034l-.975-3.055h.455l.65 2.21c.065.195.13.325.13.52.065-.13.13-.325.195-.455l.91-2.145h.39l-1.3 2.99-.455-.065z" fill="#4087C6"/>
        <path d="M37.502 9.1l1.625-2.795.455.065.78 3.184-.455-.065-.26-.974-1.3-.195-.455.844-.39-.065zm1.04-1.04l.975.13-.195-.845c-.065-.26-.065-.455-.13-.65-.065.195-.13.39-.26.52l-.39.845z" fill="#4087C6"/>
        <path d="M40.687 9.685l.78-2.925 1.3.325c.26.065.455.13.585.26.13.065.195.195.26.39a.555.555 0 0 1 0 .455c-.065.195-.195.39-.325.455-.195.13-.39.13-.715.13l.195.195c.065.13.13.26.195.455l.26.91-.455-.13-.195-.715c-.065-.195-.13-.39-.195-.455-.065-.13-.065-.195-.13-.26s-.13-.065-.13-.13c-.065 0-.13-.065-.195-.065l-.52-.13-.325 1.3-.39-.065zm.845-1.56l.845.195c.195.065.325.065.455.065s.195-.065.26-.13.13-.13.13-.26c.065-.13 0-.26-.065-.39s-.195-.195-.455-.26l-.91-.195-.26.975z" fill="#4087C6"/>
        <path d="M43.612 10.53l1.105-2.796.39.13-.975 2.47 1.365.52-.13.325-1.755-.65z" fill="#4087C6"/>
        <path d="M45.952 11.504l1.3-2.73.39.195-1.3 2.73-.39-.195z" fill="#4087C6"/>
        <path d="M47.057 12.024l1.494-2.6.325.195-.78 1.3 2.015-.52.455.26-1.625.39.26 2.21-.455-.26-.13-1.885-.65.195-.52.91-.39-.195z" fill="#4087C6"/>
        <path d="M50.631 14.299l1.885-2.34 1.56 1.3-.195.26-1.235-1.04-.65.715 1.105.91-.195.26-1.105-.91-.845 1.04-.325-.195z" fill="#4087C6"/>
        <path d="M53.621 14.819c.39-.325.715-.52 1.105-.52s.715.13 1.04.455c.195.195.325.455.39.65.065.26.065.52-.065.78-.065.26-.26.455-.455.715-.195.195-.455.39-.715.455-.26.065-.52.065-.78 0s-.455-.195-.65-.39a1.549 1.549 0 0 1-.39-.715c-.065-.26-.065-.52.065-.78s.26-.455.455-.65zm.26.325c-.26.26-.39.52-.39.78s.065.52.26.715c.195.195.455.325.715.325.26 0 .585-.13.845-.39.195-.195.325-.325.39-.52s.065-.39.065-.585a1.947 1.947 0 0 0-.26-.52c-.195-.195-.455-.325-.715-.325-.26.065-.585.195-.91.52z" fill="#4087C6"/>
        <path d="M54.92 18.394l2.406-1.82.26.325-.91 2.665 1.885-1.43.26.325-2.405 1.82-.26-.326.91-2.664-1.885 1.43-.26-.325z" fill="#4087C6"/>
        <path d="M60.316 21.058l.195.326-1.495.845c-.26.13-.455.26-.65.26s-.39 0-.585-.13c-.195-.13-.325-.26-.52-.52-.13-.26-.195-.455-.195-.65s.065-.39.195-.52.325-.325.585-.455l1.495-.845.195.325-1.495.845c-.195.13-.39.26-.455.324-.065.13-.13.195-.13.39 0 .13.065.26.13.456.13.26.325.39.455.454.195.065.455-.064.78-.195l1.495-.91z" fill="#4087C6"/>
        <path d="M8.254 33.537h.39v.39h-.39c-.065.39-.195.65-.39.91a1.077 1.077 0 0 1-.78.325.927.927 0 0 1-.78-.39c-.195-.195-.325-.52-.325-.91h-.39v-.39h.39c0-.325.13-.65.39-.845.195-.195.52-.325.845-.325.325 0 .585.13.78.39.195.195.26.455.26.845zm-.39.325l-1.56-.065c0 .26.065.455.195.585.13.13.325.26.585.26.26 0 .455-.065.585-.195.13-.13.195-.325.195-.585zm.065-.325c0-.26-.065-.455-.195-.585a.824.824 0 0 0-.585-.26c-.26 0-.455.065-.585.195-.13.13-.195.26-.195.52l1.56.13z" fill="#4087C6"/>
        <path d="M7.02 35.487c.52-.065.91.065 1.17.325.324.26.454.585.52.975 0 .26 0 .52-.13.78s-.26.39-.52.52-.52.195-.78.26c-.326 0-.586 0-.846-.13s-.455-.26-.585-.455c-.13-.195-.195-.455-.26-.715 0-.26 0-.52.13-.78.13-.195.325-.39.52-.52s.52-.195.78-.26zm0 .455c-.39 0-.65.13-.846.325-.195.195-.26.455-.26.78s.13.52.39.715c.195.195.52.26.91.26.26 0 .455-.065.65-.195s.325-.195.39-.39.13-.325.13-.52c0-.26-.13-.52-.325-.715a1.326 1.326 0 0 0-1.04-.26z" fill="#4087C6"/>
        <path d="M5.85 39.257l2.924-.585.065.39-1.235.195.26 1.56 1.235-.195.065.39-2.925.585-.065-.39 1.365-.26-.26-1.56-1.365.26-.065-.39z" fill="#4087C6"/>
        <path d="M9.424 41.792l.52 1.755-2.535.78.065.26-.975.26-.13-.325.65-.195-.52-1.885-.65.195-.13-.325 1.04-.325.065.195c.39.13 1.17 0 2.21-.26l.39-.13zm.065 1.495l-.26-1.04-.13.065c-.26.065-.585.13-1.04.26-.455.065-.845.13-1.105.065l.39 1.3 2.145-.65z" fill="#4087C6"/>
        <path d="M7.864 46.472l2.73-1.3.195.39-1.105.52.65 1.43 1.105-.52.195.39-2.73 1.3-.195-.39 1.3-.585-.65-1.43-1.3.585-.195-.39z" fill="#4087C6"/>
        <path d="M9.1 49.136l3.184-.585.195.39-1.95 2.6-.26-.39.585-.78-.65-1.105-.975.195-.13-.325zm1.559.065l.52.845.52-.65a2.13 2.13 0 0 0 .39-.52c-.195.065-.39.13-.585.13l-.845.195z" fill="#4087C6"/>
        <path d="M13.324 50.111l.26.325-2.08 1.625.975 1.235 2.08-1.625.26.325-2.08 1.625.195.195-1.105.78-.195-.26.65-.52-1.365-1.82 2.405-1.885z" fill="#4087C6"/>
        <path d="M12.999 54.53l2.21-2.014.26.325-2.21 2.014-.26-.324z" fill="#4087C6"/>
        <path d="M14.754 54.335c.325-.39.715-.584 1.105-.584s.715.13 1.04.39c.194.194.325.39.39.65.064.26.064.52 0 .78-.066.26-.196.52-.455.714-.195.195-.455.39-.715.455-.26.065-.52.13-.78.065s-.455-.195-.65-.39-.325-.39-.39-.65a1.586 1.586 0 0 1 0-.78c.13-.195.26-.455.455-.65zm.26.325c-.26.26-.39.52-.39.845 0 .26.13.52.325.715.195.195.455.325.78.26s.585-.195.845-.455c.195-.195.26-.39.325-.52a.902.902 0 0 0 0-.585c-.065-.195-.13-.325-.26-.455-.195-.195-.455-.26-.715-.26-.26-.064-.585.13-.91.455z" fill="#4087C6"/>
        <path d="M16.378 57.846l1.82-2.405.325.26-.715.975 1.235.91.715-.975.325.26-1.82 2.405-.325-.26.845-1.105-1.235-.975-.845 1.105-.325-.195z" fill="#4087C6"/>
        <path d="M18.718 59.6l2.535-2.014.39.195-.455 3.185-.39-.195.195-.975-1.105-.65-.78.65-.39-.195zm1.365-.65l.845.52.13-.844c.065-.26.065-.455.13-.65-.13.13-.26.26-.455.39l-.65.585z" fill="#4087C6"/>
        <path d="M23.203 58.69l1.69.78-1.235 2.73-.39-.195 1.105-2.405-.975-.455-.65 1.43c-.13.26-.26.52-.325.585-.065.13-.195.195-.325.26s-.26 0-.39-.065c-.065-.065-.195-.065-.26-.195l.195-.26.13.13c.065.065.13.065.195 0s.13-.195.26-.39l.975-1.95z" fill="#4087C6"/>
        <path d="M25.413 59.666l.39.13-.455 1.234.65.26c.325.13.52.195.65.325s.195.26.195.39 0 .26-.065.455a.87.87 0 0 1-.455.52c-.195.13-.52.13-.91-.065l-1.105-.39 1.105-2.86zm-.52 2.664l.715.26c.26.065.455.13.585.065.13-.065.195-.195.26-.325s.065-.195 0-.325-.13-.195-.195-.26-.26-.13-.52-.195l-.52-.195-.325.975z" fill="#4087C6"/>
        <path d="M27.233 63.435l.65-2.924.39.065-.26 1.235 1.495.325.26-1.235.39.065-.65 2.925-.39-.066.325-1.364-1.495-.325-.325 1.364-.39-.065z" fill="#4087C6"/>
        <path d="M30.483 62.656c.064-.52.26-.846.52-1.105.325-.26.65-.325 1.104-.325.26 0 .52.13.715.26.195.13.325.39.455.585.065.26.13.52.065.845-.065.324-.13.584-.26.78-.13.194-.325.39-.585.454-.26.13-.455.13-.715.13-.26 0-.52-.13-.715-.26-.195-.13-.325-.39-.454-.585-.13-.26-.195-.52-.13-.78zm.39.065c-.066.39 0 .65.194.91.195.26.39.39.715.39.325.064.585-.066.78-.26.195-.196.325-.456.39-.846 0-.26 0-.454-.065-.65-.065-.194-.195-.325-.325-.455a.738.738 0 0 0-.52-.194c-.26 0-.52.065-.78.194-.195.13-.325.456-.39.91z" fill="#4087C6"/>
        <path d="M33.927 61.42h1.95v.325h-1.56v2.665h-.39v-2.99z" fill="#4087C6"/>
        <path d="M35.877 62.98c-.065-.52.065-.91.325-1.17.26-.325.585-.455.975-.52.26 0 .52 0 .78.13s.39.26.585.52c.13.196.195.52.26.78 0 .325 0 .585-.13.845s-.26.455-.455.585c-.195.13-.455.195-.715.26-.26 0-.52 0-.78-.13s-.39-.26-.52-.52a1.03 1.03 0 0 1-.325-.78zm.39 0c0 .39.13.65.39.845.195.195.455.26.78.26s.52-.13.715-.39c.195-.195.26-.52.195-.91 0-.26-.065-.455-.195-.65-.065-.194-.26-.325-.39-.39-.195-.064-.325-.13-.52-.13-.26 0-.52.13-.715.325-.195.196-.26.585-.26 1.04z" fill="#4087C6"/>
        <path d="M40.362 60.9l1.755-.455.65 2.6.26-.065.26 1.04-.325.065-.195-.65-1.95.455.195.65-.325.065-.26-1.04.195-.065c.13-.39.065-1.17-.195-2.21l-.065-.39zm1.495 0l-1.04.26.065.13c.065.26.13.585.195 1.04.065.455.065.845 0 1.105l1.365-.325-.585-2.21z" fill="#4087C6"/>
        <path d="M43.157 61.81c-.195-.455-.195-.91 0-1.235.13-.325.455-.585.844-.78.26-.065.52-.13.78-.065.26.066.455.196.65.326.195.195.325.39.455.715.13.26.13.584.13.844-.065.26-.13.52-.325.715-.195.195-.39.325-.65.455-.26.065-.52.13-.78.065s-.455-.195-.65-.325c-.194-.26-.325-.52-.454-.715zm.39-.13c.13.325.324.585.584.715.26.13.52.13.78.065.26-.13.455-.26.585-.52.13-.26.13-.585-.065-.91-.065-.26-.195-.39-.325-.584-.13-.13-.325-.26-.455-.26-.195-.066-.39 0-.585.065-.26.065-.455.26-.585.52-.13.13-.065.454.066.91z" fill="#4087C6"/>
        <path d="M45.756 59.145l1.755-.845.13.325-1.365.715.39.845.65-.325c.26-.13.455-.195.585-.195.13 0 .325 0 .455.065s.26.195.325.39c.065.13.13.26.065.455 0 .13-.065.26-.13.455-.065.13-.26.26-.585.39l-1.04.52-1.235-2.795zm1.495 2.21l.715-.325a.666.666 0 0 0 .39-.325c.065-.13.065-.26 0-.455-.065-.13-.13-.195-.195-.26s-.195-.065-.325-.065-.26.065-.52.195l-.52.325.455.91z" fill="#4087C6"/>
        <path d="M49.656 60.51l-1.56-2.534.975-.585c.195-.13.325-.195.39-.195.13-.065.26-.065.39-.065s.26.065.39.13.195.195.325.325c.13.195.195.455.13.65-.065.26-.26.455-.585.715l-.65.39.65 1.04-.455.13zm-.455-1.56l.65-.39c.195-.13.325-.26.39-.39s0-.26-.065-.454c-.065-.13-.13-.195-.26-.195-.13-.065-.195-.065-.325 0-.065 0-.195.065-.325.195l-.65.39.585.845z" fill="#4087C6"/>
        <path d="M51.15 57.846c-.324-.39-.454-.78-.39-1.17.066-.39.196-.715.586-.975.195-.195.455-.26.715-.325.26-.065.52 0 .715.13.26.13.455.26.65.52s.325.52.39.78 0 .52-.065.78c-.13.26-.26.455-.455.585-.195.195-.455.26-.715.325-.26 0-.52 0-.715-.13-.39-.13-.585-.26-.715-.52zm.326-.195c.195.26.455.455.78.52.26.065.52 0 .78-.195s.39-.39.39-.715c0-.26-.065-.585-.325-.91-.13-.195-.325-.325-.52-.455-.195-.065-.39-.13-.52-.13a.738.738 0 0 0-.52.195c-.195.195-.325.39-.39.65-.065.325 0 .65.325 1.04z" fill="#4087C6"/>
        <path d="M52.71 54.596l1.366-1.365.26.26-1.04 1.105.65.65.52-.52c.195-.195.39-.325.52-.39s.325-.065.455-.065c.195.065.325.13.455.26s.195.26.195.39c.065.13.065.26 0 .455-.065.13-.195.325-.39.585l-.845.845-2.145-2.21zm2.21 1.625l.586-.585c.13-.13.26-.325.26-.455s-.065-.26-.13-.39a.493.493 0 0 0-.26-.13c-.13 0-.195 0-.325.065s-.26.195-.455.39l-.39.39.715.715z" fill="#4087C6"/>
        <path d="M54.336 53.036l.26-.325 2.015.455-.845-1.82.26-.325 1.04 2.34c.13.325.195.52.195.65s-.065.26-.13.39c-.065.065-.195.13-.325.26l-.26-.195c.13-.065.195-.13.26-.195s.065-.13.065-.26-.065-.26-.195-.455l-2.34-.52z" fill="#4087C6"/>
        <path d="M59.08 51.866l-2.21-1.495-.584.845-.26-.195 1.365-1.95.26.195-.52.78 2.21 1.495-.26.325z" fill="#4087C6"/>
        <path d="M57.39 49.006l.196-.325 2.08.065-1.17-1.69.194-.325 1.495 2.145c.195.26.325.455.325.585.065.13 0 .26-.065.39-.065.065-.13.195-.26.325l-.325-.195a.507.507 0 0 0 .26-.26c.065-.065.065-.195.065-.26s-.13-.26-.26-.39l-2.534-.065z" fill="#4087C6"/>
        <path d="M59.275 45.432l.13-.39 1.235.455c.065-.195.065-.325.065-.39s-.13-.26-.39-.455l-.325-.325c-.065-.065-.065-.195-.13-.26 0-.13 0-.195.065-.325s.065-.195.065-.195l.325.13v.13c-.065.13-.065.195 0 .325.065.065.13.195.26.325.195.195.325.325.325.39.065.065.065.195.065.26.13-.13.325-.26.715-.325l1.17-.195-.195.455-.975.195c-.26.065-.455.13-.585.13a.507.507 0 0 0-.26.26l1.3.52-.13.39-2.73-1.105z" fill="#4087C6"/>
        <path d="M62.98 44.066l-2.924-.845.325-1.104c.065-.195.13-.325.13-.456.065-.13.13-.26.26-.325a.497.497 0 0 1 .325-.13h.39c.26.066.455.195.585.39.13.196.13.52 0 .91l-.195.715 1.17.325-.066.52zm-1.43-.78l.196-.78c.064-.26.064-.455 0-.584-.066-.13-.195-.195-.325-.26-.13-.066-.26-.066-.325 0a.897.897 0 0 0-.26.194c-.065.066-.065.195-.13.325l-.195.715 1.04.39z" fill="#4087C6"/>
        <path d="M60.77 40.687l.066-.325 2.34.39-2.08-2.015.065-.39 2.99.52-.066.325-2.34-.39 2.08 2.015-.065.39-2.99-.52z" fill="#4087C6"/>
        <path d="M64.28 37.957l-2.99-.13v-.585l2.145-.585c.195-.065.325-.065.455-.13-.13-.065-.26-.13-.455-.195l-2.08-.845v-.52l2.99.13v.39l-2.535-.13 2.535 1.04v.39l-2.6.715 2.535.13v.325z" fill="#4087C6"/>
        <path d="M61.42 34.707v-.39l1.755-1.105-1.884-.715v-.39l2.404.975c.325.13.52.195.585.325.065.065.13.195.13.39 0 .13 0 .26-.065.39h-.325c.065-.13.065-.195.065-.325a.493.493 0 0 0-.13-.26c-.065-.065-.195-.13-.455-.195l-2.08 1.3z" fill="#4087C6"/>
        <path d="M32.173 39.842v-1.82h1.95v-5.524h-3.77v5.524h-3.705v-1.755h1.885v-5.524H41.467v5.524h1.82v1.755h-3.64v-5.524h-3.77v5.524h1.885v1.82h-5.59z" fill="#FECD18"/>
    </g>
    <defs>
        <clipPath id="a">
            <path fill="#fff" d="M0 0h70v70H0z"/>
        </clipPath>
    </defs>
</svg>
