<svg width="28" height="29" viewBox="0 0 28 29" fill="none" xmlns="http://www.w3.org/2000/svg">
    <path d="M20.713 29c0-3.595 0-7.19-.007-10.777 0-.204 0-.317.265-.211 2.166.853 4.332 1.691 6.497 2.53.25.098.456.226.517.513.068.34-.099.59-.502.748-1.276.498-2.553.99-3.83 1.488-.364.143-.721.279-1.086.415-.121.045-.182.106-.182.242.007 1.661.007 3.322.007 4.976 0 .03.016.053.023.084C21.853 29 21.283 29 20.713 29z" fill="#92BEDE"/>
    <path d="M.068 0c.844.378 1.717.68 2.584 1.02 1.36.536 2.727 1.057 4.095 1.586.205.083.403.166.494.385.152.355 0 .695-.41.853-.912.363-1.831.718-2.75 1.073-.715.28-1.422.566-2.144.823-.205.075-.273.166-.266.385.008 1.556 0 3.111.008 4.667 0 .234-.053.317-.296.302a9.084 9.084 0 0 0-1.11 0c-.235.015-.28-.075-.273-.287.007-1.163.007-2.318.007-3.481 0-2.447 0-4.886.008-7.333C.03 0 .045 0 .068 0z" fill="#92BEDE"/>
    <path d="M17.172 22.105a95.26 95.26 0 0 0-1.079-1.14c-.09-.091-.144-.159-.015-.272.32-.28.631-.574.935-.869.099-.09.152-.09.25.008.783.846 1.581 1.676 2.364 2.53.326.355.319.785-.015 1.148-.775.845-1.55 1.676-2.326 2.522-.106.113-.167.136-.288.015-.297-.287-.6-.574-.912-.846-.114-.098-.114-.158-.008-.272.357-.377.7-.762 1.056-1.147-.121-.076-.227-.046-.326-.046H6.77c-2.127 0-3.867-1.435-4.278-3.512-.516-2.582 1.497-5.082 4.15-5.09 4.65-.015 9.307-.007 13.957-.007 1.247 0 2.242-.65 2.652-1.73.669-1.752-.623-3.594-2.538-3.594-3.883-.008-7.773 0-11.656 0-1.838 0-3.677 0-5.516.007-.228 0-.32-.045-.304-.294.023-.37.023-.74 0-1.103-.015-.234.068-.295.304-.295 2.363.008 4.719 0 7.082 0h9.984c2.28 0 4.042 1.496 4.407 3.739.395 2.401-1.49 4.803-3.928 4.909-1.58.068-3.169.03-4.75.03-3.145 0-6.29 0-9.437.007-1.512 0-2.575.876-2.819 2.273-.243 1.443.86 2.878 2.318 3.021.236.023.471.03.707.03h9.726c.083-.007.182-.014.341-.022z" fill="#92BEDE"/>
</svg>
